<svg width="134" height="48" viewBox="0 0 134 48" fill="none" xmlns="http://www.w3.org/2000/svg">
<rect width="134" height="48" fill="#F55800"/>
<path d="M20.2578 21.1921H22.7632C22.7269 18.9886 20.9159 17.4673 18.163 17.4673C15.4524 17.4673 13.4663 18.9645 13.4784 21.2102C13.4723 23.0334 14.7582 24.0778 16.847 24.5788L18.1932 24.9169C19.5394 25.2429 20.288 25.6293 20.2941 26.4624C20.288 27.3679 19.4308 27.9837 18.1027 27.9837C16.7443 27.9837 15.7664 27.3558 15.6818 26.1183H13.1524C13.2188 28.7926 15.1325 30.1751 18.1328 30.1751C21.1513 30.1751 22.9262 28.7322 22.9322 26.4684C22.9262 24.4098 21.3747 23.3171 19.2255 22.8342L18.1147 22.5685C17.0402 22.321 16.1406 21.9226 16.1588 21.0352C16.1588 20.2383 16.8651 19.6527 18.1449 19.6527C19.3946 19.6527 20.1612 20.2202 20.2578 21.1921ZM29.378 30.1811C31.672 30.1811 33.2175 29.0643 33.5797 27.3438L31.2012 27.1868C30.9416 27.8931 30.2775 28.2614 29.4203 28.2614C28.1344 28.2614 27.3194 27.4102 27.3194 26.0277V26.0217H33.634V25.3153C33.634 22.1641 31.7264 20.6065 29.2754 20.6065C26.5467 20.6065 24.7779 22.5444 24.7779 25.4059C24.7779 28.3459 26.5225 30.1811 29.378 30.1811ZM27.3194 24.4279C27.3737 23.3714 28.1767 22.5263 29.3176 22.5263C30.4345 22.5263 31.2072 23.3232 31.2132 24.4279H27.3194ZM40.0482 30.1811C42.3422 30.1811 43.8877 29.0643 44.2499 27.3438L41.8713 27.1868C41.6117 27.8931 40.9477 28.2614 40.0904 28.2614C38.8046 28.2614 37.9896 27.4102 37.9896 26.0277V26.0217H44.3042V25.3153C44.3042 22.1641 42.3965 20.6065 39.9455 20.6065C37.2168 20.6065 35.448 22.5444 35.448 25.4059C35.448 28.3459 37.1927 30.1811 40.0482 30.1811ZM37.9896 24.4279C38.0439 23.3714 38.8468 22.5263 39.9878 22.5263C41.1046 22.5263 41.8774 23.3232 41.8834 24.4279H37.9896ZM50.9853 30H58.8998V27.8448H53.5993V17.6364H50.9853V30ZM61.0925 30H63.6643V20.7273H61.0925V30ZM62.3845 19.532C63.1511 19.532 63.779 18.9464 63.779 18.228C63.779 17.5156 63.1511 16.93 62.3845 16.93C61.6238 16.93 60.996 17.5156 60.996 18.228C60.996 18.9464 61.6238 19.532 62.3845 19.532ZM74.8793 20.7273H72.1566L70.2369 27.3619H70.1403L68.2145 20.7273H65.4979L68.7397 30H71.6374L74.8793 20.7273ZM80.6157 30.1811C82.9098 30.1811 84.4552 29.0643 84.8174 27.3438L82.4389 27.1868C82.1793 27.8931 81.5152 28.2614 80.658 28.2614C79.3721 28.2614 78.5572 27.4102 78.5572 26.0277V26.0217H84.8718V25.3153C84.8718 22.1641 82.9641 20.6065 80.5131 20.6065C77.7844 20.6065 76.0156 22.5444 76.0156 25.4059C76.0156 28.3459 77.7603 30.1811 80.6157 30.1811ZM78.5572 24.4279C78.6115 23.3714 79.4144 22.5263 80.5554 22.5263C81.6722 22.5263 82.4449 23.3232 82.451 24.4279H78.5572Z" fill="white"/>
<path fill-rule="evenodd" clip-rule="evenodd" d="M103 24C103 20.134 106.134 17 110 17C110.552 17 111 16.5523 111 16C111 15.4477 110.552 15 110 15C105.029 15 101 19.0294 101 24C101 28.9706 105.029 33 110 33C114.971 33 119 28.9706 119 24C119 23.4477 118.552 23 118 23C117.448 23 117 23.4477 117 24C117 27.866 113.866 31 110 31C106.134 31 103 27.866 103 24ZM114 15C113.448 15 113 15.4477 113 16C113 16.5523 113.448 17 114 17H115.586L109.293 23.2929C108.902 23.6834 108.902 24.3166 109.293 24.7071C109.683 25.0976 110.317 25.0976 110.707 24.7071L117 18.4142V20C117 20.5523 117.448 21 118 21C118.552 21 119 20.5523 119 20V16C119 15.4477 118.552 15 118 15H114Z" fill="white"/>
</svg>
