<?xml version="1.0" encoding="UTF-8" standalone="no"?>
<svg
   width="24"
   height="24"
   viewBox="0 0 24 24"
   fill="none"
   version="1.1"
   id="svg8"
   xmlns="http://www.w3.org/2000/svg"
   xmlns:svg="http://www.w3.org/2000/svg">
  <defs
     id="defs12" />
  <path
     fill-rule="evenodd"
     clip-rule="evenodd"
     d="M 5,12 C 5,8.134 8.134,5 12,5 12.552,5 13,4.5523 13,4 13,3.4477 12.552,3 12,3 7.029,3 3,7.0294 3,12 c 0,4.9706 4.029,9 9,9 4.971,0 9,-4.0294 9,-9 0,-0.5523 -0.448,-1 -1,-1 -0.552,0 -1,0.4477 -1,1 0,3.866 -3.134,7 -7,7 C 8.134,19 5,15.866 5,12 Z M 16,3 c -0.552,0 -1,0.4477 -1,1 0,0.5523 0.448,1 1,1 h 1.586 l -6.293,6.2929 c -0.391,0.3905 -0.391,1.0237 0,1.4142 0.39,0.3905 1.024,0.3905 1.414,0 L 19,6.4142 V 8 c 0,0.5523 0.448,1 1,1 0.552,0 1,-0.4477 1,-1 V 4 C 21,3.4477 20.552,3 20,3 Z"
     fill="#ffffff"
     id="path6" />
</svg>
